<svg xmlns="http://www.w3.org/2000/svg" viewBox="0 0 1000 1000" width="1000" height="1000">
<title>Пирамида с боковым ребром, перпендикулярным основанию</title>
<polygon points="143.9,872.0 329.9,128.0 856.1,686.0 670.1,872.0" fill="#1B7A3E" fill-opacity="0.09" stroke="none"/>
<line x1="856.1" y1="686.0" x2="329.9" y2="686.0" stroke="#8CC6A3" stroke-width="6" stroke-dasharray="18,12" stroke-linecap="round"/>
<line x1="329.9" y1="686.0" x2="143.9" y2="872.0" stroke="#8CC6A3" stroke-width="6" stroke-dasharray="18,12" stroke-linecap="round"/>
<line x1="329.9" y1="686.0" x2="329.9" y2="128.0" stroke="#8CC6A3" stroke-width="6" stroke-dasharray="18,12" stroke-linecap="round"/>
<line x1="143.9" y1="872.0" x2="670.1" y2="872.0" stroke="#1B7A3E" stroke-width="6" stroke-linecap="round"/>
<line x1="143.9" y1="872.0" x2="329.9" y2="128.0" stroke="#1B7A3E" stroke-width="6" stroke-linecap="round"/>
<line x1="670.1" y1="872.0" x2="856.1" y2="686.0" stroke="#1B7A3E" stroke-width="6" stroke-linecap="round"/>
<line x1="670.1" y1="872.0" x2="329.9" y2="128.0" stroke="#1B7A3E" stroke-width="6" stroke-linecap="round"/>
<line x1="856.1" y1="686.0" x2="329.9" y2="128.0" stroke="#1B7A3E" stroke-width="6" stroke-linecap="round"/>
<polyline points="329.9,648.8 316.8,662.0 316.8,699.2" fill="none" stroke="#E07A2F" stroke-width="3"/>
<circle cx="143.9" cy="872.0" r="9" fill="#14532D" stroke="#fff" stroke-width="2.5"/>
<circle cx="670.1" cy="872.0" r="9" fill="#14532D" stroke="#fff" stroke-width="2.5"/>
<circle cx="856.1" cy="686.0" r="9" fill="#14532D" stroke="#fff" stroke-width="2.5"/>
<circle cx="329.9" cy="686.0" r="9" fill="#14532D" stroke="#fff" stroke-width="2.5"/>
<circle cx="329.9" cy="128.0" r="9" fill="#14532D" stroke="#fff" stroke-width="2.5"/>
<text x="90.8" y="932.6" font-family="Lora, Georgia, serif" font-weight="700" font-size="68" fill="#14231A" text-anchor="middle">A</text>
<text x="713.6" y="943.5" font-family="Lora, Georgia, serif" font-weight="700" font-size="68" fill="#14231A" text-anchor="middle">B</text>
<text x="920.4" y="715.9" font-family="Lora, Georgia, serif" font-weight="700" font-size="68" fill="#14231A" text-anchor="middle">C</text>
<text x="265.3" y="710.1" font-family="Lora, Georgia, serif" font-weight="700" font-size="68" fill="#14231A" text-anchor="middle">D</text>
<text x="329.9" y="87.2" font-family="Lora, Georgia, serif" font-weight="700" font-size="68" fill="#14231A" text-anchor="middle">S</text>
</svg>