<svg xmlns="http://www.w3.org/2000/svg" viewBox="0 0 1000 1000" width="1000" height="1000">
<title>Наклонная треугольная призма</title>
<polygon points="128.0,671.8 300.0,153.0 872.0,153.0 700.0,671.8 238.9,847.0" fill="#6a1fb5" fill-opacity="0.1" stroke="none"/>
<line x1="700.0" y1="671.8" x2="128.0" y2="671.8" stroke="#b48ee0" stroke-width="6" stroke-dasharray="18,12" stroke-linecap="round"/>
<line x1="128.0" y1="671.8" x2="238.9" y2="847.0" stroke="#6a1fb5" stroke-width="6" stroke-linecap="round"/>
<line x1="300.0" y1="153.0" x2="410.8" y2="328.2" stroke="#6a1fb5" stroke-width="6" stroke-linecap="round"/>
<line x1="128.0" y1="671.8" x2="300.0" y2="153.0" stroke="#6a1fb5" stroke-width="6" stroke-linecap="round"/>
<line x1="238.9" y1="847.0" x2="700.0" y2="671.8" stroke="#6a1fb5" stroke-width="6" stroke-linecap="round"/>
<line x1="410.8" y1="328.2" x2="872.0" y2="153.0" stroke="#6a1fb5" stroke-width="6" stroke-linecap="round"/>
<line x1="238.9" y1="847.0" x2="410.8" y2="328.2" stroke="#6a1fb5" stroke-width="6" stroke-linecap="round"/>
<line x1="872.0" y1="153.0" x2="300.0" y2="153.0" stroke="#6a1fb5" stroke-width="6" stroke-linecap="round"/>
<line x1="700.0" y1="671.8" x2="872.0" y2="153.0" stroke="#6a1fb5" stroke-width="6" stroke-linecap="round"/>
<circle cx="872.0" cy="153.0" r="9" fill="#5b3fd6" stroke="#fff" stroke-width="2.5"/>
<circle cx="238.9" cy="847.0" r="9" fill="#5b3fd6" stroke="#fff" stroke-width="2.5"/>
<circle cx="300.0" cy="153.0" r="9" fill="#5b3fd6" stroke="#fff" stroke-width="2.5"/>
<circle cx="700.0" cy="671.8" r="9" fill="#5b3fd6" stroke="#fff" stroke-width="2.5"/>
<circle cx="128.0" cy="671.8" r="9" fill="#5b3fd6" stroke="#fff" stroke-width="2.5"/>
<circle cx="410.8" cy="328.2" r="9" fill="#5b3fd6" stroke="#fff" stroke-width="2.5"/>
<text x="73.6" y="730.5" font-family="Lora, Georgia, serif" font-weight="700" font-size="68" fill="#1c1b2e" text-anchor="middle">A</text>
<text x="208.2" y="927.6" font-family="Lora, Georgia, serif" font-weight="700" font-size="68" fill="#1c1b2e" text-anchor="middle">B</text>
<text x="751.0" y="735.3" font-family="Lora, Georgia, serif" font-weight="700" font-size="68" fill="#1c1b2e" text-anchor="middle">C</text>
<text x="273.7" y="117.8" font-family="Lora, Georgia, serif" font-weight="700" font-size="68" fill="#1c1b2e" text-anchor="middle">A<tspan font-size="41" baseline-shift="-25%">1</tspan></text>
<text x="397.2" y="288.8" font-family="Lora, Georgia, serif" font-weight="700" font-size="68" fill="#1c1b2e" text-anchor="middle">B<tspan font-size="41" baseline-shift="-25%">1</tspan></text>
<text x="924.0" y="138.5" font-family="Lora, Georgia, serif" font-weight="700" font-size="68" fill="#1c1b2e" text-anchor="middle">C<tspan font-size="41" baseline-shift="-25%">1</tspan></text>
</svg>