<svg xmlns="http://www.w3.org/2000/svg" viewBox="0 0 1000 1000" width="1000" height="1000">
<title>Прямая треугольная призма</title>
<polygon points="197.5,128.0 802.5,128.0 802.5,686.8 314.8,872.0 197.5,686.8" fill="#1B7A3E" fill-opacity="0.09" stroke="none"/>
<line x1="802.5" y1="686.8" x2="197.5" y2="686.8" stroke="#8CC6A3" stroke-width="6" stroke-dasharray="18,12" stroke-linecap="round"/>
<line x1="197.5" y1="686.8" x2="314.8" y2="872.0" stroke="#1B7A3E" stroke-width="6" stroke-linecap="round"/>
<line x1="197.5" y1="128.0" x2="314.8" y2="313.2" stroke="#1B7A3E" stroke-width="6" stroke-linecap="round"/>
<line x1="197.5" y1="686.8" x2="197.5" y2="128.0" stroke="#1B7A3E" stroke-width="6" stroke-linecap="round"/>
<line x1="314.8" y1="872.0" x2="802.5" y2="686.8" stroke="#1B7A3E" stroke-width="6" stroke-linecap="round"/>
<line x1="314.8" y1="313.2" x2="802.5" y2="128.0" stroke="#1B7A3E" stroke-width="6" stroke-linecap="round"/>
<line x1="314.8" y1="872.0" x2="314.8" y2="313.2" stroke="#1B7A3E" stroke-width="6" stroke-linecap="round"/>
<line x1="802.5" y1="128.0" x2="197.5" y2="128.0" stroke="#1B7A3E" stroke-width="6" stroke-linecap="round"/>
<line x1="802.5" y1="686.8" x2="802.5" y2="128.0" stroke="#1B7A3E" stroke-width="6" stroke-linecap="round"/>
<circle cx="197.5" cy="686.8" r="9" fill="#14532D" stroke="#fff" stroke-width="2.5"/>
<circle cx="197.5" cy="128.0" r="9" fill="#14532D" stroke="#fff" stroke-width="2.5"/>
<circle cx="314.8" cy="872.0" r="9" fill="#14532D" stroke="#fff" stroke-width="2.5"/>
<circle cx="314.8" cy="313.2" r="9" fill="#14532D" stroke="#fff" stroke-width="2.5"/>
<circle cx="802.5" cy="686.8" r="9" fill="#14532D" stroke="#fff" stroke-width="2.5"/>
<circle cx="802.5" cy="128.0" r="9" fill="#14532D" stroke="#fff" stroke-width="2.5"/>
<text x="149.6" y="753.9" font-family="Lora, Georgia, serif" font-weight="700" font-size="68" fill="#14231A" text-anchor="middle">A</text>
<text x="295.8" y="957.6" font-family="Lora, Georgia, serif" font-weight="700" font-size="68" fill="#14231A" text-anchor="middle">B</text>
<text x="857.9" y="743.7" font-family="Lora, Georgia, serif" font-weight="700" font-size="68" fill="#14231A" text-anchor="middle">C</text>
<text x="160.3" y="99.0" font-family="Lora, Georgia, serif" font-weight="700" font-size="68" fill="#14231A" text-anchor="middle">A<tspan font-size="41" baseline-shift="-25%">1</tspan></text>
<text x="274.7" y="286.4" font-family="Lora, Georgia, serif" font-weight="700" font-size="68" fill="#14231A" text-anchor="middle">B<tspan font-size="41" baseline-shift="-25%">1</tspan></text>
<text x="849.6" y="107.6" font-family="Lora, Georgia, serif" font-weight="700" font-size="68" fill="#14231A" text-anchor="middle">C<tspan font-size="41" baseline-shift="-25%">1</tspan></text>
</svg>