<svg xmlns="http://www.w3.org/2000/svg" viewBox="0 0 1000 1000" width="1000" height="1000">
<title>Осевое сечение конуса</title>
<polygon points="191.3,760.9 500.0,143.4 808.7,760.9" fill="#6a1fb5" fill-opacity="0.1" stroke="none"/>
<path d="M 191.3 760.9 L 500.0 143.4 L 808.7 760.9 A 308.7 111.1 0 0 1 191.3 760.9 Z" fill="#6a1fb5" fill-opacity="0.1" stroke="none"/>
<path d="M 191.3 760.9 A 308.7 111.1 0 0 0 808.7 760.9" fill="none" stroke="#b48ee0" stroke-width="6" stroke-dasharray="18,12" stroke-linecap="round"/>
<path d="M 191.3 760.9 A 308.7 111.1 0 0 1 808.7 760.9" fill="none" stroke="#6a1fb5" stroke-width="6" stroke-linecap="round"/>
<line x1="191.3" y1="760.9" x2="500.0" y2="143.4" stroke="#6a1fb5" stroke-width="6" stroke-linecap="round"/>
<line x1="808.7" y1="760.9" x2="500.0" y2="143.4" stroke="#6a1fb5" stroke-width="6" stroke-linecap="round"/>
<polygon points="191.3,760.9 808.7,760.9 500.0,143.4" fill="#6a1fb5" fill-opacity="0.13" stroke="none"/>
<line x1="191.3" y1="760.9" x2="808.7" y2="760.9" stroke="#b48ee0" stroke-width="4" stroke-dasharray="14,10"/>
<line x1="500.0" y1="760.9" x2="500.0" y2="143.4" stroke="#b48ee0" stroke-width="4" stroke-dasharray="14,10"/>
<circle cx="808.7" cy="760.9" r="9" fill="#5b3fd6" stroke="#fff" stroke-width="2.5"/>
<circle cx="191.3" cy="760.9" r="9" fill="#5b3fd6" stroke="#fff" stroke-width="2.5"/>
<circle cx="500.0" cy="143.4" r="9" fill="#5b3fd6" stroke="#fff" stroke-width="2.5"/>
<circle cx="500.0" cy="760.9" r="7.2" fill="#5b3fd6" stroke="#fff" stroke-width="2.5"/>
<path transform="translate(479.7,102.6) scale(0.06800,-0.06800)" d="M454 476Q445 532 422.0 569.5Q399 607 363.5 626.0Q328 645 281 644Q238 644 205.5 620.0Q173 596 173 558Q173 527 190.5 504.0Q208 481 244.0 461.0Q280 441 335 418Q373 403 413.0 383.0Q453 363 487.0 335.5Q521 308 542.0 271.5Q563 235 563 186Q563 127 531.0 81.0Q499 35 441.5 9.5Q384 -16 307 -16Q267 -16 220.5 -3.5Q174 9 133 33L136 -9H59V225H125Q139 141 189.5 98.5Q240 56 310 56Q346 56 373.0 69.0Q400 82 415.0 103.5Q430 125 430 150Q430 185 405.5 208.0Q381 231 344.5 247.0Q308 263 270 278Q222 298 180.5 320.5Q139 343 108.0 372.0Q77 401 60.0 438.5Q43 476 43 525Q43 556 55.0 589.5Q67 623 94.0 651.5Q121 680 166.0 698.0Q211 716 277 716Q317 716 364.5 704.0Q412 692 446 668L442 709H520V476Z" fill="#1c1b2e"/>
<path transform="translate(463.8,831.1) scale(0.05400,-0.05400)" d="M383 -16Q288 -16 221.5 16.0Q155 48 114.0 101.5Q73 155 54.0 220.0Q35 285 35 350Q35 413 56.5 477.5Q78 542 121.5 596.0Q165 650 231.0 683.0Q297 716 386 716Q477 716 543.0 683.0Q609 650 651.0 595.5Q693 541 713.5 477.0Q734 413 734 350Q734 288 712.5 224.0Q691 160 647.5 105.5Q604 51 538.0 17.5Q472 -16 383 -16ZM394 57Q446 57 481.0 82.5Q516 108 537.0 149.0Q558 190 567.0 238.5Q576 287 576 333Q576 402 564.0 459.0Q552 516 527.0 557.5Q502 599 463.5 621.5Q425 644 373 643Q322 642 287.0 615.5Q252 589 231.0 547.5Q210 506 201.0 457.0Q192 408 192 362Q192 315 202.5 262.0Q213 209 236.0 162.0Q259 115 298.0 86.0Q337 57 394 57Z" fill="#1c1b2e"/>
<path transform="translate(104.0,810.5) scale(0.06800,-0.06800)" d="M4 0V69Q32 69 49.0 85.0Q66 101 77.5 127.0Q89 153 100 183L295 718H365L578 173Q584 158 594.0 127.5Q604 97 606 74Q623 76 638.5 76.5Q654 77 664 77V0H395V66Q423 66 433.5 77.5Q444 89 443.0 109.0Q442 129 432 154L412 209L195 205L179 158Q174 145 164.5 119.5Q155 94 147 77Q163 79 185.5 79.5Q208 80 218 80V0ZM220 280H387L341 405Q328 441 318.0 477.5Q308 514 303 542H302Q298 525 290.0 491.0Q282 457 265 410Z" fill="#1c1b2e"/>
<path transform="translate(850.9,810.5) scale(0.06800,-0.06800)" d="M50 0V66Q73 67 88.5 72.0Q104 77 112.5 95.0Q121 113 121 153V536Q121 563 122.5 588.0Q124 613 125 626Q109 625 85.0 624.5Q61 624 50 623V700Q119 701 188.5 701.0Q258 701 327 702Q447 703 517.5 657.5Q588 612 583 520Q581 491 565.0 463.5Q549 436 517.5 414.0Q486 392 439 379V378Q539 362 586.0 311.5Q633 261 633 199Q633 134 601.5 89.5Q570 45 515.0 22.5Q460 0 390 0ZM262 71Q280 71 296.0 71.0Q312 71 328.0 71.5Q344 72 359 72Q420 75 448.0 111.0Q476 147 476 202Q476 248 457.0 274.5Q438 301 408.5 312.0Q379 323 347 323Q322 323 304.0 323.0Q286 323 266 322V159Q266 132 265.0 108.0Q264 84 262 71ZM266 393 318 394Q360 395 384.5 413.0Q409 431 419.5 461.5Q430 492 430 528Q430 568 414.0 590.5Q398 613 374.0 623.0Q350 633 324 632Q308 632 295.0 627.0Q282 622 274.0 604.5Q266 587 266 548Z" fill="#1c1b2e"/>
</svg>