<svg xmlns="http://www.w3.org/2000/svg" viewBox="0 0 1000 1000" width="1000" height="1000">
<title>Шестиугольная пирамида</title>
<polygon points="128.0,740.7 500.0,145.4 872.0,740.7 572.1,854.6 200.1,854.6" fill="#6a1fb5" fill-opacity="0.1" stroke="none"/>
<line x1="872.0" y1="740.7" x2="799.9" y2="626.8" stroke="#b48ee0" stroke-width="6" stroke-dasharray="18,12" stroke-linecap="round"/>
<line x1="799.9" y1="626.8" x2="427.9" y2="626.8" stroke="#b48ee0" stroke-width="6" stroke-dasharray="18,12" stroke-linecap="round"/>
<line x1="799.9" y1="626.8" x2="500.0" y2="145.4" stroke="#b48ee0" stroke-width="6" stroke-dasharray="18,12" stroke-linecap="round"/>
<line x1="427.9" y1="626.8" x2="128.0" y2="740.7" stroke="#b48ee0" stroke-width="6" stroke-dasharray="18,12" stroke-linecap="round"/>
<line x1="427.9" y1="626.8" x2="500.0" y2="145.4" stroke="#b48ee0" stroke-width="6" stroke-dasharray="18,12" stroke-linecap="round"/>
<line x1="128.0" y1="740.7" x2="200.1" y2="854.6" stroke="#6a1fb5" stroke-width="6" stroke-linecap="round"/>
<line x1="128.0" y1="740.7" x2="500.0" y2="145.4" stroke="#6a1fb5" stroke-width="6" stroke-linecap="round"/>
<line x1="200.1" y1="854.6" x2="572.1" y2="854.6" stroke="#6a1fb5" stroke-width="6" stroke-linecap="round"/>
<line x1="200.1" y1="854.6" x2="500.0" y2="145.4" stroke="#6a1fb5" stroke-width="6" stroke-linecap="round"/>
<line x1="572.1" y1="854.6" x2="872.0" y2="740.7" stroke="#6a1fb5" stroke-width="6" stroke-linecap="round"/>
<line x1="572.1" y1="854.6" x2="500.0" y2="145.4" stroke="#6a1fb5" stroke-width="6" stroke-linecap="round"/>
<line x1="872.0" y1="740.7" x2="500.0" y2="145.4" stroke="#6a1fb5" stroke-width="6" stroke-linecap="round"/>
<circle cx="200.1" cy="854.6" r="9" fill="#5b3fd6" stroke="#fff" stroke-width="2.5"/>
<circle cx="572.1" cy="854.6" r="9" fill="#5b3fd6" stroke="#fff" stroke-width="2.5"/>
<circle cx="128.0" cy="740.7" r="9" fill="#5b3fd6" stroke="#fff" stroke-width="2.5"/>
<circle cx="427.9" cy="626.8" r="9" fill="#5b3fd6" stroke="#fff" stroke-width="2.5"/>
<circle cx="799.9" cy="626.8" r="9" fill="#5b3fd6" stroke="#fff" stroke-width="2.5"/>
<circle cx="872.0" cy="740.7" r="9" fill="#5b3fd6" stroke="#fff" stroke-width="2.5"/>
<circle cx="500.0" cy="145.4" r="9" fill="#5b3fd6" stroke="#fff" stroke-width="2.5"/>
<text x="65.0" y="778.9" font-family="Lora, Georgia, serif" font-weight="700" font-size="68" fill="#1c1b2e" text-anchor="middle">A</text>
<text x="146.2" y="914.1" font-family="Lora, Georgia, serif" font-weight="700" font-size="68" fill="#1c1b2e" text-anchor="middle">B</text>
<text x="594.1" y="939.1" font-family="Lora, Georgia, serif" font-weight="700" font-size="68" fill="#1c1b2e" text-anchor="middle">C</text>
<text x="935.0" y="778.9" font-family="Lora, Georgia, serif" font-weight="700" font-size="68" fill="#1c1b2e" text-anchor="middle">D</text>
<text x="864.2" y="644.4" font-family="Lora, Georgia, serif" font-weight="700" font-size="68" fill="#1c1b2e" text-anchor="middle">E</text>
<text x="367.9" y="626.5" font-family="Lora, Georgia, serif" font-weight="700" font-size="68" fill="#1c1b2e" text-anchor="middle">F</text>
<text x="500.0" y="104.6" font-family="Lora, Georgia, serif" font-weight="700" font-size="68" fill="#1c1b2e" text-anchor="middle">S</text>
</svg>