<svg xmlns="http://www.w3.org/2000/svg" viewBox="0 0 1000 1000" width="1000" height="1000">
<title>Пятиугольная пирамида</title>
<polygon points="128.0,703.8 482.0,160.6 872.0,656.0 664.8,809.8 204.9,839.4" fill="#1B7A3E" fill-opacity="0.09" stroke="none"/>
<line x1="872.0" y1="656.0" x2="540.3" y2="590.5" stroke="#8CC6A3" stroke-width="6" stroke-dasharray="18,12" stroke-linecap="round"/>
<line x1="540.3" y1="590.5" x2="128.0" y2="703.8" stroke="#8CC6A3" stroke-width="6" stroke-dasharray="18,12" stroke-linecap="round"/>
<line x1="540.3" y1="590.5" x2="482.0" y2="160.6" stroke="#8CC6A3" stroke-width="6" stroke-dasharray="18,12" stroke-linecap="round"/>
<line x1="128.0" y1="703.8" x2="204.9" y2="839.4" stroke="#1B7A3E" stroke-width="6" stroke-linecap="round"/>
<line x1="128.0" y1="703.8" x2="482.0" y2="160.6" stroke="#1B7A3E" stroke-width="6" stroke-linecap="round"/>
<line x1="204.9" y1="839.4" x2="664.8" y2="809.8" stroke="#1B7A3E" stroke-width="6" stroke-linecap="round"/>
<line x1="204.9" y1="839.4" x2="482.0" y2="160.6" stroke="#1B7A3E" stroke-width="6" stroke-linecap="round"/>
<line x1="664.8" y1="809.8" x2="872.0" y2="656.0" stroke="#1B7A3E" stroke-width="6" stroke-linecap="round"/>
<line x1="664.8" y1="809.8" x2="482.0" y2="160.6" stroke="#1B7A3E" stroke-width="6" stroke-linecap="round"/>
<line x1="872.0" y1="656.0" x2="482.0" y2="160.6" stroke="#1B7A3E" stroke-width="6" stroke-linecap="round"/>
<circle cx="128.0" cy="703.8" r="9" fill="#14532D" stroke="#fff" stroke-width="2.5"/>
<circle cx="204.9" cy="839.4" r="9" fill="#14532D" stroke="#fff" stroke-width="2.5"/>
<circle cx="664.8" cy="809.8" r="9" fill="#14532D" stroke="#fff" stroke-width="2.5"/>
<circle cx="872.0" cy="656.0" r="9" fill="#14532D" stroke="#fff" stroke-width="2.5"/>
<circle cx="540.3" cy="590.5" r="9" fill="#14532D" stroke="#fff" stroke-width="2.5"/>
<circle cx="482.0" cy="160.6" r="9" fill="#14532D" stroke="#fff" stroke-width="2.5"/>
<text x="64.9" y="741.4" font-family="Lora, Georgia, serif" font-weight="700" font-size="68" fill="#14231A" text-anchor="middle">A</text>
<text x="153.7" y="902.5" font-family="Lora, Georgia, serif" font-weight="700" font-size="68" fill="#14231A" text-anchor="middle">B</text>
<text x="710.4" y="879.3" font-family="Lora, Georgia, serif" font-weight="700" font-size="68" fill="#14231A" text-anchor="middle">C</text>
<text x="936.4" y="684.6" font-family="Lora, Georgia, serif" font-weight="700" font-size="68" fill="#14231A" text-anchor="middle">D</text>
<text x="595.1" y="580.2" font-family="Lora, Georgia, serif" font-weight="700" font-size="68" fill="#14231A" text-anchor="middle">E</text>
<text x="482.0" y="119.8" font-family="Lora, Georgia, serif" font-weight="700" font-size="68" fill="#14231A" text-anchor="middle">S</text>
</svg>